<?xml version="1.0" encoding="UTF-8"?>
<svg xmlns="http://www.w3.org/2000/svg" viewBox="0 0 400 300" width="400" height="300" role="img" aria-label="Publication">
	<defs>
		<linearGradient id="bg" x1="0" y1="0" x2="0.2" y2="1">
			<stop offset="0%" stop-color="#fed0bb" />
			<stop offset="55%" stop-color="#fcb9b2" />
			<stop offset="100%" stop-color="#f5c4b8" />
		</linearGradient>
		<linearGradient id="paper" x1="0" y1="0" x2="0" y2="1">
			<stop offset="0%" stop-color="#fff8f4" />
			<stop offset="100%" stop-color="#f5ddd4" />
		</linearGradient>
	</defs>

	<rect width="400" height="300" fill="url(#bg)" />

	<rect x="118" y="42" width="164" height="210" rx="4" fill="url(#paper)" stroke="#8c2f39" stroke-width="2" />
	<rect x="128" y="52" width="144" height="8" rx="2" fill="#b23a48" opacity="0.85" />
	<rect x="128" y="72" width="112" height="5" rx="1" fill="#461220" opacity="0.35" />
	<rect x="128" y="84" width="132" height="5" rx="1" fill="#461220" opacity="0.25" />
	<rect x="128" y="96" width="124" height="5" rx="1" fill="#461220" opacity="0.25" />
	<rect x="128" y="108" width="128" height="5" rx="1" fill="#461220" opacity="0.25" />
	<rect x="128" y="120" width="96" height="5" rx="1" fill="#461220" opacity="0.2" />

	<rect x="128" y="142" width="112" height="5" rx="1" fill="#461220" opacity="0.25" />
	<rect x="128" y="154" width="132" height="5" rx="1" fill="#461220" opacity="0.25" />
	<rect x="128" y="166" width="120" height="5" rx="1" fill="#461220" opacity="0.25" />
	<rect x="128" y="178" width="128" height="5" rx="1" fill="#461220" opacity="0.25" />
	<rect x="128" y="190" width="104" height="5" rx="1" fill="#461220" opacity="0.2" />

	<rect x="128" y="212" width="88" height="5" rx="1" fill="#461220" opacity="0.18" />
	<rect x="128" y="224" width="72" height="5" rx="1" fill="#461220" opacity="0.15" />

	<text x="200" y="278" text-anchor="middle" font-family="Helvetica Neue, Helvetica, Arial, sans-serif" font-size="11" font-weight="600" letter-spacing="0.14em" fill="#461220">PUBLICATION</text>
</svg>
